<svg xmlns="http://www.w3.org/2000/svg" width="1148" height="790" viewBox="0 0 1148 790" version="1.1">
	<path d="M 553.500 53.956 C 537.981 59.218, 528.232 62.618, 504 71.220 C 499.325 72.880, 485.375 77.745, 473 82.031 C 460.625 86.318, 445.325 91.714, 439 94.023 C 432.675 96.332, 426.150 98.575, 424.500 99.009 C 422.850 99.442, 416.775 101.454, 411 103.481 C 405.225 105.508, 398.700 107.774, 396.500 108.517 C 394.300 109.260, 387.325 111.727, 381 114 C 374.675 116.272, 363.200 120.307, 355.500 122.966 C 327.359 132.683, 307.412 139.752, 303.750 141.306 L 300 142.898 300 250.966 L 300 359.034 325.585 358.767 L 351.169 358.500 351.335 269.609 C 351.480 191.704, 351.685 180.627, 353 179.975 C 356.788 178.098, 367.252 174.244, 380 170.032 C 385.164 168.325, 391.942 165.850, 396.500 164.004 C 406.089 160.123, 461.526 141, 463.188 141 C 463.965 141, 465.028 140.591, 465.550 140.091 C 466.072 139.591, 468.750 138.495, 471.500 137.655 C 476.403 136.158, 497.626 128.702, 507.500 125.008 C 510.250 123.979, 516.100 122.006, 520.500 120.624 C 527.702 118.361, 542.359 113.252, 564.250 105.375 L 572 102.587 572 75.852 C 572 61.148, 571.663 48.910, 571.250 48.655 C 570.837 48.400, 562.850 50.786, 553.500 53.956 M 604.430 49.321 C 604.175 49.988, 604.086 62.205, 604.233 76.471 L 604.500 102.409 612 105.045 C 616.125 106.495, 620.175 107.952, 621 108.283 C 621.825 108.614, 624.750 109.618, 627.500 110.515 C 630.250 111.411, 633.850 112.762, 635.500 113.516 C 638.624 114.943, 652.294 119.582, 657.500 120.981 C 660.916 121.899, 680.473 128.675, 683.500 129.989 C 684.600 130.466, 687.975 131.618, 691 132.548 C 694.025 133.479, 697.850 134.821, 699.500 135.532 C 703.056 137.064, 713.504 140.745, 728 145.575 C 733.775 147.498, 739.400 149.481, 740.500 149.981 C 741.600 150.481, 748.575 152.933, 756 155.431 C 763.425 157.928, 774.450 161.815, 780.500 164.067 C 786.550 166.320, 792.625 168.537, 794 168.992 C 795.375 169.448, 800.325 171.246, 805 172.987 C 809.675 174.729, 815.750 176.875, 818.500 177.756 C 821.250 178.638, 823.725 179.541, 824 179.763 C 824.275 179.985, 824.725 220.291, 825 269.333 L 825.500 358.500 850.750 358.767 L 876 359.034 876 251.140 C 876 166.040, 875.736 143.027, 874.750 142.215 C 874.063 141.649, 868.775 139.582, 863 137.621 C 857.225 135.660, 847.325 132.201, 841 129.933 C 812.316 119.651, 801.284 115.784, 798.500 115.036 C 795.155 114.138, 792.483 113.231, 789.500 111.980 C 787.217 111.024, 775.148 106.741, 767 103.996 C 763.975 102.977, 756.325 100.278, 750 97.999 C 743.675 95.720, 737.150 93.495, 735.500 93.056 C 733.850 92.617, 730.700 91.588, 728.500 90.770 C 726.300 89.952, 722.025 88.484, 719 87.508 C 715.975 86.532, 712.150 85.149, 710.500 84.434 C 708.850 83.719, 705.250 82.372, 702.500 81.441 C 696.419 79.380, 645.033 61.716, 625 54.800 C 605.078 47.923, 604.977 47.896, 604.430 49.321 M 1021.488 112.385 C 1019.453 113.873, 1019.823 116.859, 1022.231 118.376 C 1024.575 119.852, 1027.472 117.062, 1026.565 114.204 C 1025.730 111.575, 1023.627 110.821, 1021.488 112.385 M 566.500 150.138 C 525.467 156.165, 495.159 168.192, 466.633 189.769 C 456.826 197.186, 442 210.593, 442 212.043 C 442 212.896, 469.317 240.038, 471.284 241.139 C 472.223 241.664, 475.639 239.193, 482.038 233.360 C 493.662 222.763, 500.582 217.941, 515.500 210.046 C 525.476 204.766, 544.684 198.125, 556 196.044 C 559.575 195.387, 564.750 194.351, 567.500 193.744 C 574.267 192.248, 605.305 192.214, 611 193.695 C 613.475 194.339, 618.425 195.414, 622 196.084 C 625.575 196.753, 630.750 198.073, 633.500 199.017 C 636.250 199.961, 640.525 201.340, 643 202.082 C 647.582 203.455, 664.848 211.806, 673 216.592 C 678.302 219.704, 694.021 232.330, 698.946 237.431 C 700.842 239.394, 703.140 241, 704.054 241 C 704.967 241, 709.987 236.838, 715.209 231.750 C 720.430 226.662, 726.794 220.547, 729.351 218.160 C 731.908 215.773, 734 213.073, 734 212.160 C 734 208.645, 709.637 188.123, 694.666 179.028 C 673.293 166.043, 645.584 155.852, 621.500 152.117 C 617.650 151.519, 611.538 150.574, 607.918 150.015 C 600.122 148.813, 575.017 148.887, 566.500 150.138 M 417.718 244.250 C 404.682 265.301, 394.481 293.443, 389.895 321 C 387.275 336.743, 386.837 341.625, 386.351 360.500 C 385.947 376.209, 386.195 382.860, 387.510 391.500 C 388.430 397.550, 389.559 405.200, 390.019 408.500 C 391.693 420.529, 398.664 444.327, 404.225 457 C 405.311 459.475, 406.540 462.400, 406.957 463.500 C 412.917 479.240, 432.661 511.297, 445.093 525.419 C 447.069 527.663, 450.036 531.037, 451.685 532.916 C 454.681 536.326, 454.688 536.329, 457.092 534.457 C 461.922 530.699, 481.999 507.940, 481.982 506.245 C 481.972 505.285, 480.876 503.150, 479.548 501.500 C 478.219 499.850, 474.987 495.832, 472.366 492.572 C 456.185 472.445, 438.748 436.206, 433.838 412.500 C 433.269 409.750, 432.380 405.475, 431.864 403 C 426.144 375.568, 426.722 352.527, 434.034 316.500 C 436.152 306.066, 443.621 286.788, 450.294 274.532 L 454.088 267.563 438.794 252.308 C 430.382 243.917, 423.209 237.040, 422.854 237.026 C 422.498 237.012, 420.187 240.262, 417.718 244.250 M 743.749 246.214 C 738.662 251.348, 731.879 258.285, 728.675 261.629 L 722.851 267.709 727.374 277.104 C 735.237 293.438, 739.835 306.084, 742.972 320 C 752.229 361.073, 748.886 401.727, 732.932 442.093 C 729.220 451.486, 721.489 466.883, 717.838 472.154 C 716.827 473.614, 716 475.063, 716 475.373 C 716 476.459, 707.747 487.950, 700.793 496.546 C 692.552 506.733, 692.448 505.837, 703.198 517.185 C 707.009 521.208, 712.416 527.087, 715.213 530.250 C 718.011 533.413, 720.689 536, 721.166 536 C 723.454 536, 737.060 519.281, 747.921 503.121 C 753.702 494.521, 755.552 491.328, 763.350 476.500 C 774.033 456.186, 783.355 427.996, 786.827 405.500 C 787.422 401.650, 788.404 395.322, 789.011 391.438 C 789.618 387.554, 790.153 375.404, 790.200 364.438 C 790.279 345.982, 789.869 340.761, 786.830 321.500 C 783.854 302.648, 773.895 272.176, 765.711 256.885 C 760.471 247.095, 755.066 238.159, 753.978 237.486 C 753.439 237.153, 748.836 241.081, 743.749 246.214 M 577.500 238.583 C 556.682 241.548, 539.962 247.360, 522.340 257.758 C 515.011 262.083, 504 271.377, 504 273.238 C 504 274.650, 531.917 302, 533.358 302 C 533.989 302, 537.788 299.562, 541.799 296.582 C 556.792 285.445, 570.054 280.980, 587.980 281.036 C 607.998 281.098, 622.331 286.188, 637.674 298.685 L 643.206 303.191 655.281 291.345 C 661.922 284.830, 668.691 278.017, 670.322 276.205 L 673.287 272.909 668.286 268.088 C 659.844 259.951, 645.984 251.490, 632 245.935 C 626.380 243.703, 624.957 243.269, 614.500 240.597 C 608.643 239.100, 583.485 237.730, 577.500 238.583 M 675.140 314.426 L 659.779 329.745 661.790 335.622 C 665.384 346.128, 667.957 361.069, 667.983 371.591 C 668.017 385.661, 664.177 405.361, 659.388 415.679 C 656.305 422.320, 647.098 436.722, 642.463 442.151 C 640.009 445.027, 638 447.903, 638 448.542 C 638 450.450, 664.078 477, 665.951 477 C 667.695 477, 669.474 475.234, 678.412 464.630 C 686.309 455.260, 691.107 447.159, 698.329 431 C 701.395 424.140, 706.279 406.262, 708.027 395.500 C 711.508 374.063, 709.512 346.075, 703.248 328.500 C 701.875 324.650, 700.539 320.375, 700.277 319 C 699.545 315.150, 692.627 299.684, 691.500 299.379 C 690.950 299.230, 683.588 306.001, 675.140 314.426 M 481.144 306.508 C 479.410 310.137, 477.046 316.120, 475.889 319.803 C 474.733 323.486, 473.182 328.361, 472.444 330.636 C 466.405 349.237, 465.597 391.387, 470.961 408 C 471.405 409.375, 472.331 412.525, 473.018 415 C 477.218 430.121, 484.427 446.366, 490.631 454.692 C 498.586 465.366, 502.898 470.609, 506.836 474.398 L 510.887 478.296 514.216 475.398 C 516.047 473.804, 519.281 470.475, 521.401 468 C 523.522 465.525, 528.350 460.242, 532.129 456.260 C 535.908 452.278, 538.985 448.678, 538.967 448.260 C 538.948 447.842, 536.881 445.250, 534.373 442.500 C 529.937 437.635, 524 429.683, 524 428.605 C 524 428.310, 522.696 426.013, 521.102 423.500 C 512.027 409.190, 506.871 382.783, 509.058 361.815 C 510.119 351.644, 513.662 335.063, 515.098 333.550 C 515.594 333.028, 516 331.851, 516 330.935 C 516 329.145, 487.901 300.696, 485.648 300.205 C 484.834 300.028, 483.042 302.534, 481.144 306.508 M 576.215 336.546 C 557.503 342.431, 545.988 358, 546.011 377.383 C 546.031 394.348, 551.986 406.204, 564.405 414.002 L 569.975 417.500 569.987 497.250 C 569.994 541.112, 569.759 577, 569.465 577 C 568.841 577, 567.570 576.222, 555.524 568.470 C 542.586 560.144, 516.165 539.166, 509.076 531.591 C 506.095 528.405, 503.707 528.295, 501.710 531.250 C 500.874 532.487, 497.560 536.242, 494.345 539.594 C 480.312 554.225, 477 557.916, 477 558.927 C 477 559.958, 487.480 570.340, 492.722 574.500 C 494.107 575.600, 498.675 579.348, 502.871 582.829 C 514.133 592.172, 535.767 608.349, 541.511 611.723 C 544.268 613.342, 549.893 616.849, 554.011 619.516 C 558.130 622.184, 563.750 625.801, 566.500 627.554 C 573.112 631.769, 587.516 640, 588.280 640 C 590.442 640, 638.982 609.724, 647.500 603.062 C 650.800 600.482, 654.247 597.949, 655.160 597.435 C 662.150 593.499, 699.002 561.283, 698.994 559.116 C 698.989 557.630, 691.076 548.487, 676.863 533.545 L 671.198 527.590 665.349 533.377 C 651.178 547.396, 609.762 578.207, 607.209 576.629 C 606.819 576.388, 606.565 540.559, 606.645 497.008 L 606.790 417.825 611.609 414.663 C 631.999 401.280, 636.852 371.052, 621.785 351.284 C 611.857 338.259, 591.599 331.707, 576.215 336.546 M 302.028 391 C 301.078 392.834, 303.970 414.208, 307.373 430.500 C 316.298 473.229, 333.441 515.935, 355.354 550.027 C 365.817 566.305, 365.406 565.719, 377.619 581.750 C 383.628 589.637, 389.069 595.136, 390.540 594.809 C 391.718 594.547, 399.241 587.926, 423.347 565.937 L 427.252 562.375 420.090 553.437 C 404.106 533.491, 384.667 501.028, 375.516 479 C 365.640 455.227, 356.153 419.043, 354.336 398.217 C 353.987 394.211, 353.230 390.642, 352.655 390.286 C 352.079 389.931, 340.628 389.608, 327.207 389.570 C 306.481 389.511, 302.689 389.726, 302.028 391 M 826.440 389.847 C 823.342 390.401, 823.123 390.976, 821.598 402.588 C 814.491 456.679, 789.166 514.268, 754.307 555.608 C 751.938 558.417, 750 561.202, 750 561.796 C 750 562.788, 776.866 587.990, 783.279 593.014 C 784.808 594.212, 786.667 594.958, 787.409 594.673 C 791.668 593.039, 819.281 554.939, 829.207 537 C 853.320 493.425, 867.582 449.844, 873.984 400.176 C 874.645 395.048, 874.917 390.584, 874.588 390.255 C 873.958 389.625, 829.773 389.251, 826.440 389.847 M 428.570 601.049 C 417.387 611.262, 411.005 617.787, 411.201 618.803 C 411.790 621.865, 448.973 655.328, 468.550 670.416 C 483.574 681.995, 511.634 701.525, 522.300 707.826 C 526.810 710.491, 534.283 715.042, 538.907 717.941 C 549.025 724.283, 550.634 725.196, 568.500 734.742 C 576.200 738.855, 583.747 742.949, 585.271 743.839 C 587.944 745.399, 588.282 745.333, 594.755 741.978 C 606.478 735.904, 630.322 722.439, 639.062 716.957 C 643.703 714.047, 652 708.965, 657.500 705.665 C 663 702.364, 669.300 698.377, 671.500 696.803 C 673.700 695.229, 678.200 692.015, 681.500 689.659 C 694.601 680.309, 715.822 664.337, 721.500 659.554 C 730.941 651.602, 754.963 629.718, 760.795 623.758 L 766.090 618.346 758.795 611.312 C 754.783 607.444, 749.475 602.529, 747 600.391 C 744.525 598.252, 739.876 594.027, 736.669 591.001 C 733.462 587.976, 729.997 585.500, 728.969 585.500 C 727.941 585.500, 722.915 589.589, 717.800 594.587 C 708.221 603.945, 696.892 613.956, 689 620.034 C 686.525 621.940, 684.275 623.747, 684 624.049 C 681.145 627.187, 643.675 653.547, 631.500 660.983 C 586.061 688.735, 589.599 687.186, 581.992 682.655 C 578.618 680.645, 575.710 679, 575.530 679 C 575.350 679, 569.578 675.671, 562.704 671.601 C 521.553 647.242, 484.645 619.875, 456.700 593.001 C 452.410 588.875, 448.304 585.365, 447.574 585.201 C 446.845 585.036, 438.293 592.168, 428.570 601.049" stroke="none" fill="#e8581a" fill-rule="evenodd"/>
</svg>